<?xml version="1.0" encoding="UTF-8" standalone="no"?>
<!-- Created with Inkscape (http://www.inkscape.org/) -->
<svg
   xmlns:dc="http://purl.org/dc/elements/1.1/"
   xmlns:cc="http://web.resource.org/cc/"
   xmlns:rdf="http://www.w3.org/1999/02/22-rdf-syntax-ns#"
   xmlns:svg="http://www.w3.org/2000/svg"
   xmlns="http://www.w3.org/2000/svg"
   xmlns:sodipodi="http://sodipodi.sourceforge.net/DTD/sodipodi-0.dtd"
   xmlns:inkscape="http://www.inkscape.org/namespaces/inkscape"
   width="300"
   height="100"
   id="svg2"
   sodipodi:version="0.32"
   inkscape:version="0.44.1"
   sodipodi:docbase="C:\work\wikigraphics"
   sodipodi:docname="tablet-weaving.svg"
   version="1.0">
  <defs
     id="defs4" />
  <sodipodi:namedview
     id="base"
     pagecolor="#ffffff"
     bordercolor="#666666"
     borderopacity="1.0"
     gridtolerance="10000"
     guidetolerance="10"
     objecttolerance="10"
     inkscape:pageopacity="0.0"
     inkscape:pageshadow="2"
     inkscape:zoom="5.05"
     inkscape:cx="150"
     inkscape:cy="47.987671"
     inkscape:document-units="px"
     inkscape:current-layer="layer1"
     showguides="true"
     inkscape:guide-bbox="true"
     inkscape:window-width="1600"
     inkscape:window-height="1144"
     inkscape:window-x="-4"
     inkscape:window-y="-4"
     width="300px"
     height="100px" />
  <metadata
     id="metadata7">
    <rdf:RDF>
      <cc:Work
         rdf:about="">
        <dc:format>image/svg+xml</dc:format>
        <dc:type
           rdf:resource="http://purl.org/dc/dcmitype/StillImage" />
      </cc:Work>
    </rdf:RDF>
  </metadata>
  <g
     inkscape:label="Layer 1"
     inkscape:groupmode="layer"
     id="layer1"
     transform="translate(-256.5259,-478.1752)">
    <g
       id="g3869"
       transform="matrix(0.785226,0,0,1,93.06689,1.980198)">
      <rect
         style="fill:#6d85ff;fill-opacity:1;stroke:black;stroke-width:0.52317953;stroke-linecap:round;stroke-linejoin:miter;stroke-miterlimit:4;stroke-dasharray:none;stroke-opacity:1"
         id="rect3796"
         width="109.27418"
         height="1.7616382"
         x="-646.68634"
         y="393.53735"
         ry="0"
         transform="matrix(-0.976773,-0.214276,-0.156859,0.987621,0,0)" />
      <rect
         transform="matrix(-0.976773,0.214276,-0.156859,-0.987621,0,0)"
         ry="0"
         y="-642.82013"
         x="-480.25894"
         height="1.7616382"
         width="109.27415"
         id="rect3798"
         style="fill:#6d85ff;fill-opacity:1;stroke:black;stroke-width:0.52317947;stroke-linecap:round;stroke-linejoin:miter;stroke-miterlimit:4;stroke-dasharray:none;stroke-opacity:1" />
      <rect
         transform="matrix(-0.988633,-0.150349,-0.223319,0.974745,0,0)"
         ry="0"
         y="436.72491"
         x="-675.09369"
         height="1.7784411"
         width="155.17305"
         id="rect3800"
         style="fill:#6d85ff;fill-opacity:1;stroke:black;stroke-width:0.62641406;stroke-linecap:round;stroke-linejoin:miter;stroke-miterlimit:4;stroke-dasharray:none;stroke-opacity:1" />
      <rect
         style="fill:#6d85ff;fill-opacity:1;stroke:black;stroke-width:0.62641376;stroke-linecap:round;stroke-linejoin:miter;stroke-miterlimit:4;stroke-dasharray:none;stroke-opacity:1"
         id="rect3802"
         width="155.17305"
         height="1.7784396"
         x="-437.94107"
         y="-613.14789"
         ry="0"
         transform="matrix(-0.988633,0.150349,-0.223319,-0.974745,0,0)" />
    </g>
    <g
       id="g3817"
       transform="matrix(-0.999838,1.800079e-2,-1.800079e-2,-0.999838,1080.147,998.5355)">
      <path
         sodipodi:nodetypes="csssc"
         id="path3815"
         d="M 531.35489,478.98893 C 530.20996,482.28289 526.3414,484.12725 523.09177,482.98288 C 519.5416,481.73266 517.7508,477.67979 518.99932,474.17352 C 520.35472,470.36711 524.70868,468.44975 528.47154,469.80248 C 532.53423,471.263 532.81189,474.96949 531.35489,478.98893 z "
         style="fill:#6d85ff;fill-opacity:1;fill-rule:evenodd;stroke:black;stroke-width:0.60000002;stroke-linecap:butt;stroke-linejoin:miter;stroke-miterlimit:4;stroke-dasharray:none;stroke-opacity:1" />
      <path
         id="path3804"
         d="M 525.58952,476.86341 C 525.87274,476.97901 525.57343,477.30221 525.39738,477.33414 C 524.92033,477.42064 524.6153,476.89123 524.64806,476.47914 C 524.70668,475.742 525.48997,475.32932 526.16592,475.45122 C 527.15791,475.63011 527.69119,476.6964 527.47244,477.63195 C 527.18088,478.87888 525.82262,479.53575 524.62885,479.21705 C 523.1266,478.816 522.34494,477.16199 522.76515,475.7106 C 523.27408,473.95277 525.22579,473.04568 526.93446,473.56831 C 528.94807,474.1842 529.98094,476.43474 529.35535,478.40048 C 528.63307,480.67001 526.08298,481.82891 523.86031,481.09996 C 521.33477,480.27169 520.04967,477.42157 520.88224,474.94206 C 521.81624,472.16043 524.96674,470.74903 527.703,471.6854 C 530.74077,472.72494 532.27858,476.17605 531.23826,479.16902"
         style="fill:none;fill-rule:evenodd;stroke:black;stroke-width:0.60000002;stroke-linecap:butt;stroke-linejoin:miter;stroke-miterlimit:4;stroke-dasharray:none;stroke-opacity:1" />
    </g>
    <rect
       style="fill:white;fill-opacity:1;stroke:black;stroke-width:0.99578118;stroke-linecap:round;stroke-linejoin:miter;stroke-miterlimit:4;stroke-dasharray:none;stroke-opacity:1"
       id="rect1872"
       width="71.175789"
       height="71.175789"
       x="402.92001"
       y="495.78726"
       ry="6.5075021" />
    <path
       sodipodi:type="arc"
       style="fill:white;fill-opacity:1;stroke:black;stroke-width:2.40499997;stroke-linecap:round;stroke-linejoin:miter;stroke-miterlimit:4;stroke-dasharray:none;stroke-opacity:1"
       id="path2760"
       sodipodi:cx="319.24844"
       sodipodi:cy="501.78137"
       sodipodi:rx="13.261089"
       sodipodi:ry="13.261089"
       d="M 332.50953 501.78137 A 13.261089 13.261089 0 1 1  305.98735,501.78137 A 13.261089 13.261089 0 1 1  332.50953 501.78137 z"
       transform="matrix(0.412409,0,0,0.412409,306.847,324.436)" />
    <path
       style="fill:white;fill-opacity:1;stroke:black;stroke-width:1;stroke-linecap:round;stroke-linejoin:miter;stroke-miterlimit:4;stroke-dasharray:none;stroke-opacity:1"
       d="M 415.03891,513.37515 C 412.02003,513.37515 409.56992,510.92504 409.56992,507.90615 C 409.56992,504.88727 412.02003,502.43716 415.03891,502.43716"
       id="path2762" />
    <rect
       style="fill:#6d85ff;fill-opacity:1;stroke:black;stroke-width:0.46360508;stroke-linecap:round;stroke-linejoin:miter;stroke-miterlimit:4;stroke-dasharray:none;stroke-opacity:1"
       id="rect2870"
       width="109.27421"
       height="1.7616382"
       x="227.05009"
       y="584.93402"
       ry="0"
       transform="matrix(0.976773,-0.214276,0.156859,0.987621,0,0)" />
    <path
       style="fill:none;fill-opacity:1;stroke:black;stroke-width:1;stroke-linecap:round;stroke-linejoin:miter;stroke-miterlimit:4;stroke-dasharray:none;stroke-opacity:1"
       d="M 415.03891,502.43716 C 418.05779,502.43716 420.5079,504.88727 420.5079,507.90615 C 420.5079,510.92504 418.05779,513.37515 415.03891,513.37515"
       id="path2824" />
    <path
       id="path2828"
       d="M 461.97689,513.37515 C 458.95801,513.37515 456.5079,510.92504 456.5079,507.90615 C 456.5079,504.88727 458.95801,502.43716 461.97689,502.43716"
       style="fill:white;fill-opacity:1;stroke:black;stroke-width:1;stroke-linecap:round;stroke-linejoin:miter;stroke-miterlimit:4;stroke-dasharray:none;stroke-opacity:1" />
    <path
       style="fill:white;fill-opacity:1;stroke:black;stroke-width:1;stroke-linecap:round;stroke-linejoin:miter;stroke-miterlimit:4;stroke-dasharray:none;stroke-opacity:1"
       d="M 461.97689,560.31314 C 458.95801,560.31314 456.5079,557.86303 456.5079,554.84414 C 456.5079,551.82526 458.95801,549.37515 461.97689,549.37515"
       id="path2832" />
    <path
       id="path2836"
       d="M 415.03891,560.31314 C 412.02003,560.31314 409.56992,557.86303 409.56992,554.84414 C 409.56992,551.82526 412.02003,549.37515 415.03891,549.37515"
       style="fill:white;fill-opacity:1;stroke:black;stroke-width:1;stroke-linecap:round;stroke-linejoin:miter;stroke-miterlimit:4;stroke-dasharray:none;stroke-opacity:1" />
    <rect
       transform="matrix(0.976773,0.214276,0.156859,-0.987621,0,0)"
       ry="0"
       y="-454.95871"
       x="394.04529"
       height="1.7616382"
       width="109.27418"
       id="rect2905"
       style="fill:#6d85ff;fill-opacity:1;stroke:black;stroke-width:0.46360502;stroke-linecap:round;stroke-linejoin:miter;stroke-miterlimit:4;stroke-dasharray:none;stroke-opacity:1" />
    <path
       id="path2834"
       d="M 415.03891,549.37515 C 418.05779,549.37515 420.5079,551.82526 420.5079,554.84414 C 420.5079,557.86303 418.05779,560.31314 415.03891,560.31314"
       style="fill:none;fill-opacity:1;stroke:black;stroke-width:1;stroke-linecap:round;stroke-linejoin:miter;stroke-miterlimit:4;stroke-dasharray:none;stroke-opacity:1" />
    <rect
       transform="matrix(0.988633,-0.150349,0.223319,0.974745,0,0)"
       ry="0"
       y="571.71173"
       x="188.03726"
       height="1.7784425"
       width="155.17305"
       id="rect3792"
       style="fill:#6d85ff;fill-opacity:1;stroke:black;stroke-width:0.55508441;stroke-linecap:round;stroke-linejoin:miter;stroke-miterlimit:4;stroke-dasharray:none;stroke-opacity:1" />
    <path
       id="path2826"
       d="M 461.97689,502.43716 C 464.99577,502.43716 467.44588,504.88727 467.44588,507.90615 C 467.44588,510.92504 464.99577,513.37515 461.97689,513.37515"
       style="fill:none;fill-opacity:1;stroke:black;stroke-width:1;stroke-linecap:round;stroke-linejoin:miter;stroke-miterlimit:4;stroke-dasharray:none;stroke-opacity:1" />
    <rect
       style="fill:#6d85ff;fill-opacity:1;stroke:black;stroke-width:0.55508417;stroke-linecap:round;stroke-linejoin:miter;stroke-miterlimit:4;stroke-dasharray:none;stroke-opacity:1"
       id="rect3794"
       width="155.17305"
       height="1.7784411"
       x="425.99899"
       y="-481.74384"
       ry="0"
       transform="matrix(0.988633,0.150349,0.223319,-0.974745,0,0)" />
    <path
       style="fill:none;fill-opacity:1;stroke:black;stroke-width:1;stroke-linecap:round;stroke-linejoin:miter;stroke-miterlimit:4;stroke-dasharray:none;stroke-opacity:1"
       d="M 461.97689,549.37515 C 464.99577,549.37515 467.44588,551.82526 467.44588,554.84414 C 467.44588,557.86303 464.99577,560.31314 461.97689,560.31314"
       id="path2830" />
    <rect
       style="fill:#6d85ff;fill-opacity:1;stroke:black;stroke-width:0.66600001;stroke-linecap:round;stroke-linejoin:round;stroke-miterlimit:4;stroke-dasharray:none;stroke-opacity:1"
       id="rect2900"
       width="54.806705"
       height="5.4905944"
       x="260.62128"
       y="528.97717"
       ry="2.0837793" />
    <text
       xml:space="preserve"
       style="font-size:12px;font-style:normal;font-weight:normal;fill:black;fill-opacity:1;stroke:none;stroke-width:1px;stroke-linecap:butt;stroke-linejoin:miter;stroke-opacity:1;font-family:Bitstream Vera Sans"
       x="416.32962"
       y="489.27261"
       id="text3821"><tspan
         sodipodi:role="line"
         id="tspan3823"
         x="416.32962"
         y="489.27261">Tablets</tspan></text>
    <text
       xml:space="preserve"
       style="font-size:12px;font-style:normal;font-weight:normal;fill:black;fill-opacity:1;stroke:none;stroke-width:1px;stroke-linecap:butt;stroke-linejoin:miter;stroke-opacity:1;font-family:Bitstream Vera Sans"
       x="337.99097"
       y="501.79697"
       id="text3825"><tspan
         sodipodi:role="line"
         id="tspan3827"
         x="337.99097"
         y="501.79697">Warp</tspan></text>
    <text
       xml:space="preserve"
       style="font-size:12px;font-style:normal;font-weight:normal;fill:black;fill-opacity:1;stroke:none;stroke-width:1px;stroke-linecap:butt;stroke-linejoin:miter;stroke-opacity:1;font-family:Bitstream Vera Sans"
       x="321.53738"
       y="575.96088"
       id="text3829"><tspan
         sodipodi:role="line"
         id="tspan3831"
         x="321.53738"
         y="575.96088">Shed</tspan></text>
    <text
       xml:space="preserve"
       style="font-size:12px;font-style:normal;font-weight:normal;text-align:center;text-anchor:middle;fill:black;fill-opacity:1;stroke:none;stroke-width:1px;stroke-linecap:butt;stroke-linejoin:miter;stroke-opacity:1;font-family:Bitstream Vera Sans"
       x="288.38464"
       y="509.16425"
       id="text3833"><tspan
         sodipodi:role="line"
         id="tspan3835"
         x="288.38464"
         y="509.16425">Finished</tspan><tspan
         sodipodi:role="line"
         x="288.38464"
         y="524.16425"
         id="tspan3837">Work</tspan></text>
    <path
       style="fill:none;fill-rule:evenodd;stroke:black;stroke-width:1px;stroke-linecap:butt;stroke-linejoin:miter;stroke-opacity:1"
       d="M 352.97108,506.46291 L 362.30296,516.53152"
       id="path3839" />
    <path
       style="fill:none;fill-rule:evenodd;stroke:black;stroke-width:1px;stroke-linecap:butt;stroke-linejoin:miter;stroke-opacity:1"
       d="M 341.92017,565.64667 L 370.40696,534.21297"
       id="path3841" />
  </g>
</svg>
